<svg width="1027" height="1073" viewBox="0 0 1027 1073" fill="none" xmlns="http://www.w3.org/2000/svg">
<rect width="1027" height="1073" fill="white"/>
<path d="M988.69 671.171V682.117C988.707 705.394 983.121 728.302 972.446 748.732C971.942 749.689 971.439 750.636 970.916 751.571C964.059 763.985 955.417 775.224 945.291 784.895C944.828 785.347 944.355 785.789 943.882 786.23L943.741 786.356L942.151 787.818C934.627 794.575 926.399 800.426 917.624 805.263C915.228 806.588 912.783 807.839 910.307 809.007C905.399 811.335 900.357 813.34 895.21 815.011C893.992 815.41 892.764 815.789 891.536 816.147C879.776 819.595 867.619 821.34 855.404 821.331H801.347C786.165 821.336 773.861 834.197 773.861 850.059V957.232H314.221V850.069C314.234 838.244 307.295 827.623 296.749 823.328C293.545 822.005 290.129 821.331 286.684 821.341H195.76C194.321 821.341 192.902 821.341 191.473 821.278C171.932 820.656 152.741 815.702 135.172 806.746C134.165 806.252 133.249 805.757 132.293 805.232C123.32 800.396 114.882 794.546 107.132 787.786L106.608 787.334C106.226 786.998 105.843 786.661 105.471 786.283L103.871 784.895C101.797 782.991 99.7845 781.004 97.8319 778.964C89.9479 770.728 83.0409 761.531 77.2599 751.571C69.1717 737.653 63.4096 722.398 60.2205 706.46C56.2885 686.788 56.2885 666.479 60.2205 646.807C60.452 645.597 60.7137 644.398 60.9854 643.2C61.7034 640.045 62.5186 636.926 63.4311 633.841C63.9478 632.117 64.4913 630.402 65.0616 628.699C68.5794 618.222 73.2505 608.207 78.9809 598.856C87.5984 584.772 98.4727 572.344 111.127 562.115C114.093 559.711 117.166 557.433 120.346 555.28C132.295 547.147 145.381 541.003 159.135 537.068C163.101 535.932 167.127 534.982 171.213 534.218C174.252 533.643 177.325 533.177 180.432 532.82C185.516 532.236 190.626 531.945 195.74 531.947H302.496C322.015 531.953 337.98 515.698 338.477 495.311C338.477 494.996 338.477 494.67 338.477 494.344C338.477 494.197 338.477 494.049 338.477 493.913C338.281 475.686 325.596 460.233 308.383 457.256C306.438 456.917 304.468 456.749 302.496 456.751H122.46H120.346C98.7651 456.225 78.2123 447.01 62.9782 431.031C62.0422 430.053 61.1263 429.054 60.2406 428.034C30.9995 394.502 30.9995 343.225 60.2406 309.693C61.1263 308.642 62.0422 307.674 62.9782 306.696C78.2123 290.717 98.7651 281.502 120.346 280.976C121.017 280.976 121.722 280.976 122.46 280.976C135.418 280.994 148.121 277.224 159.135 270.092C163.495 267.26 167.545 263.939 171.213 260.187C184.628 246.486 192.189 227.714 192.188 208.115V133.876C192.185 126.258 195.08 118.951 200.235 113.563C205.39 108.175 212.382 105.148 219.674 105.148H860.396C900.199 105.144 934.561 134.277 942.753 174.972C950.945 215.668 930.727 256.794 894.294 273.541C891.292 274.928 888.214 276.126 885.075 277.127C877.078 279.687 868.76 280.984 860.396 280.976H791.957C783.767 280.97 775.707 283.114 768.517 287.211C767.249 287.937 766.011 288.726 764.813 289.567C751.211 299.04 743.041 314.99 743.043 332.07C743.048 349.155 751.234 365.105 764.853 374.563C767.742 376.589 770.834 378.281 774.072 379.61C779.78 381.962 785.862 383.164 791.997 383.154C792.893 383.154 793.779 383.154 794.665 383.217C805.381 383.66 815.81 386.962 824.959 392.807C826.046 393.491 827.103 394.206 828.139 394.963C830.248 396.489 832.265 398.15 834.178 399.936C847.711 412.496 855.445 430.511 855.425 449.422V494.638C855.407 514.301 867.305 531.821 885.075 538.298C885.669 538.519 886.273 538.719 886.876 538.908C889.272 539.655 891.748 540.475 894.294 541.4C899.417 543.219 904.801 545.396 910.307 547.972C922.834 553.743 934.564 561.244 945.181 570.275C948.393 573.035 951.469 575.962 954.4 579.045C960.159 585.078 965.294 591.729 969.718 598.888C975.427 608.147 979.874 618.191 982.933 628.731C983.429 630.413 983.892 632.127 984.322 633.873C985.077 636.901 985.751 640.024 986.335 643.231C987.934 652.45 988.722 661.802 988.69 671.171Z" fill="#EFEFEF"/>
<path d="M891.556 816.21C879.796 819.658 867.639 821.403 855.424 821.394H801.347C786.165 821.4 773.861 834.26 773.861 850.122V957.232H314.221C314.221 957.232 371.589 679.509 470.222 676.239C568.855 672.969 593.06 784.895 593.06 784.895C593.06 784.895 610.331 586.28 747.703 572.168C818.608 564.892 864.12 691.718 891.556 816.21Z" fill="#EBECFD"/>
<rect x="159.125" y="975.749" width="74.5384" height="18.5176" rx="8.8" transform="rotate(-180 159.125 975.749)" fill="#CBCBCB"/>
<rect x="981.514" y="975.749" width="815.172" height="18.5176" rx="8.8" transform="rotate(-180 981.514 975.749)" fill="#CBCBCB"/>
<path d="M988.69 671.171V682.117C988.707 705.394 983.121 728.302 972.446 748.732C971.943 749.689 971.439 750.636 970.916 751.572C964.059 763.986 955.417 775.225 945.292 784.895C944.829 785.347 944.356 785.789 943.883 786.23L943.742 786.356L942.151 787.818C934.627 794.575 926.399 800.426 917.624 805.263C915.229 806.588 912.783 807.839 910.307 809.007C905.399 811.335 900.357 813.34 895.21 815.011C882.324 819.206 868.902 821.334 855.405 821.32H801.348C786.166 821.326 773.861 834.186 773.861 850.048V957.232H697.481V105.085H860.397C900.2 105.081 934.561 134.214 942.753 174.909C950.945 215.604 930.727 256.731 894.294 273.478C891.293 274.865 888.214 276.062 885.075 277.064C877.078 279.624 868.76 280.921 860.397 280.913H791.957C783.767 280.907 775.707 283.051 768.517 287.148C767.249 287.874 766.011 288.663 764.813 289.504C751.211 298.977 743.041 314.927 743.043 332.007C743.028 349.115 751.217 365.093 764.853 374.563C767.743 376.589 770.834 378.281 774.073 379.61C779.78 381.962 785.862 383.164 791.998 383.154C792.893 383.154 793.779 383.154 794.665 383.217C805.381 383.66 815.81 386.962 824.959 392.807C826.046 393.491 827.103 394.206 828.14 394.963C830.249 396.489 832.265 398.15 834.178 399.937C847.711 412.496 855.445 430.511 855.425 449.422V494.638C855.407 514.301 867.305 531.821 885.075 538.298C885.669 538.519 886.273 538.719 886.877 538.908C889.272 539.655 891.748 540.475 894.294 541.4C899.417 543.219 904.802 545.396 910.307 547.972C922.834 553.743 934.564 561.244 945.181 570.275C948.393 573.035 951.47 575.962 954.4 579.045C960.16 585.078 965.294 591.729 969.718 598.888C975.427 608.147 979.875 618.191 982.933 628.731C983.43 630.413 983.893 632.127 984.322 633.873C985.077 636.901 985.751 640.024 986.335 643.231C987.934 652.45 988.723 661.802 988.69 671.171Z" fill="#CBCBCB"/>
<path d="M988.69 671.171V682.117C988.707 705.394 983.121 728.302 972.446 748.732C971.942 749.689 971.439 750.636 970.916 751.572H727.051V145.106H930.959C944.408 166.732 948.091 193.436 941.032 218.149C933.974 242.861 916.886 263.09 894.294 273.478C891.292 274.865 888.214 276.062 885.075 277.064C877.078 279.624 868.76 280.921 860.396 280.913H791.957C783.767 280.907 775.707 283.051 768.517 287.148C767.249 287.874 766.011 288.663 764.813 289.504C751.211 298.977 743.041 314.927 743.043 332.007C743.028 349.115 751.217 365.093 764.853 374.563C767.742 376.589 770.834 378.281 774.072 379.61C779.78 381.962 785.862 383.164 791.997 383.154C792.893 383.154 793.779 383.154 794.665 383.217C805.381 383.66 815.81 386.962 824.959 392.807C826.046 393.491 827.103 394.206 828.139 394.963C830.248 396.489 832.265 398.15 834.178 399.937C847.711 412.496 855.445 430.511 855.425 449.422V494.638C855.407 514.301 867.305 531.821 885.075 538.298C885.669 538.519 886.273 538.719 886.876 538.908C889.272 539.655 891.748 540.475 894.294 541.4C899.417 543.219 904.801 545.396 910.307 547.972C922.834 553.743 934.564 561.244 945.181 570.276C948.393 573.035 951.47 575.962 954.4 579.045C960.159 585.078 965.294 591.729 969.718 598.888C975.427 608.147 979.874 618.191 982.933 628.731C983.429 630.413 983.892 632.127 984.322 633.873C985.077 636.901 985.751 640.024 986.335 643.231C987.934 652.45 988.722 661.802 988.69 671.171Z" fill="#F4F4F4"/>
<path d="M984.322 633.841C985.077 636.869 985.751 639.993 986.335 643.2H727.051V633.841H984.322Z" fill="#CBCBCB"/>
<path d="M774.072 145.106V284.456C772.182 285.232 770.34 286.131 768.557 287.148C767.289 287.874 766.051 288.663 764.853 289.504V145.106L774.072 145.106Z" fill="#CBCBCB"/>
<path d="M764.853 374.563C767.743 376.589 770.834 378.281 774.072 379.61V751.571H764.853V374.563Z" fill="#CBCBCB"/>
<path d="M824.969 145.106H834.178V280.913H824.969V145.106Z" fill="#CBCBCB"/>
<path d="M828.149 394.921C830.258 396.447 832.275 398.108 834.188 399.894V751.571H824.979V392.765C826.056 393.491 827.113 394.164 828.149 394.921Z" fill="#CBCBCB"/>
<path d="M894.294 145.106V273.478C891.292 274.865 888.214 276.062 885.075 277.064V145.106L894.294 145.106Z" fill="#CBCBCB"/>
<path d="M886.897 538.876C889.292 539.623 891.768 540.443 894.314 541.369V751.571H885.095V538.267C885.669 538.487 886.273 538.687 886.897 538.876Z" fill="#CBCBCB"/>
<path d="M954.4 579.014V751.571H945.181V570.244C948.393 573.004 951.47 575.931 954.4 579.014Z" fill="#CBCBCB"/>
<path d="M368.036 105.085V957.232H314.221V850.069C314.234 838.244 307.295 827.623 296.749 823.329C293.545 822.006 290.129 821.331 286.684 821.341H195.76C194.321 821.341 192.902 821.341 191.473 821.278C171.932 820.656 152.741 815.702 135.172 806.746C134.165 806.252 133.249 805.757 132.293 805.232C123.32 800.397 114.882 794.546 107.132 787.787L106.608 787.334C106.226 786.998 105.843 786.661 105.471 786.283L103.871 784.895C101.797 782.992 99.7845 781.004 97.8319 778.964C89.9479 770.728 83.0409 761.531 77.2599 751.572C69.1717 737.653 63.4096 722.399 60.2205 706.46C56.2885 686.788 56.2885 666.479 60.2205 646.807C60.452 645.597 60.7137 644.399 60.9854 643.2C61.7034 640.045 62.5186 636.926 63.4311 633.841C63.9478 632.117 64.4913 630.403 65.0616 628.699C68.5794 618.222 73.2505 608.207 78.9809 598.856C87.5984 584.772 98.4727 572.344 111.127 562.116C114.093 559.711 117.166 557.433 120.346 555.281C132.295 547.147 145.381 541.003 159.135 537.068C163.101 535.932 167.127 534.982 171.213 534.218C174.252 533.643 177.325 533.177 180.432 532.82C185.516 532.236 190.626 531.945 195.74 531.947H302.496C322.015 531.953 337.98 515.698 338.477 495.311V493.913C338.281 475.686 325.596 460.233 308.383 457.256C306.438 456.917 304.468 456.749 302.496 456.751H122.46H120.346C98.7651 456.225 78.2123 447.01 62.9782 431.031C62.0422 430.053 61.1263 429.054 60.2406 428.034C30.9995 394.502 30.9995 343.225 60.2406 309.693C61.1263 308.642 62.0422 307.674 62.9782 306.696C78.2123 290.717 98.7651 281.502 120.346 280.976C121.017 280.976 121.722 280.976 122.46 280.976C135.418 280.994 148.121 277.224 159.135 270.092C163.495 267.26 167.545 263.939 171.213 260.187C184.628 246.486 192.189 227.714 192.188 208.115V133.876C192.185 126.258 195.08 118.951 200.235 113.563C205.39 108.175 212.382 105.148 219.674 105.148L368.036 105.085Z" fill="#CBCBCB"/>
<path d="M338.477 145.106V493.913C338.281 475.686 325.596 460.233 308.383 457.256C306.438 456.917 304.468 456.749 302.496 456.751H122.46H120.346C98.7651 456.225 78.2123 447.01 62.9782 431.031C62.0422 430.053 61.1263 429.054 60.2406 428.034C30.9995 394.502 30.9995 343.225 60.2406 309.693C61.1263 308.642 62.0422 307.674 62.9782 306.696C78.2123 290.717 98.7651 281.502 120.346 280.976C121.017 280.976 121.722 280.976 122.46 280.976C135.418 280.994 148.121 277.224 159.135 270.092C163.495 267.26 167.545 263.939 171.213 260.187C184.628 246.486 192.189 227.714 192.188 208.115V145.106L338.477 145.106Z" fill="#F4F4F4"/>
<path d="M338.476 495.311V751.571H77.2699C69.1817 737.653 63.4196 722.399 60.2305 706.46C56.2985 686.788 56.2985 666.479 60.2305 646.807C60.462 645.597 60.7237 644.398 60.9954 643.2C61.7134 640.045 62.5286 636.926 63.4411 633.841C63.9578 632.117 64.5013 630.403 65.0716 628.699C68.5862 618.222 73.2539 608.208 78.9809 598.856C87.5983 584.772 98.4726 572.344 111.127 562.115C114.093 559.711 117.166 557.433 120.346 555.28C132.295 547.147 145.381 541.003 159.135 537.068C163.101 535.932 167.127 534.982 171.213 534.218C174.252 533.643 177.325 533.177 180.432 532.82C185.516 532.236 190.626 531.945 195.74 531.947H302.496C322.015 531.953 337.98 515.698 338.476 495.311V495.311Z" fill="#F4F4F4"/>
<path d="M338.477 633.841V643.2H60.9956C61.7135 640.045 62.5288 636.926 63.4413 633.841H338.477Z" fill="#CBCBCB"/>
<path d="M291.445 145.106H300.664V456.751H291.445V145.106Z" fill="#CBCBCB"/>
<path d="M291.445 531.947H300.664V751.572H291.445V531.947Z" fill="#CBCBCB"/>
<path d="M231.339 145.106H240.558V456.751H231.339V145.106Z" fill="#CBCBCB"/>
<path d="M231.339 531.947H240.558V751.572H231.339V531.947Z" fill="#CBCBCB"/>
<path d="M180.452 248.525V456.73H171.233V260.092C174.683 256.582 177.773 252.706 180.452 248.525Z" fill="#CBCBCB"/>
<path d="M171.233 534.218C174.273 533.643 177.346 533.177 180.452 532.82V751.54H171.233V534.218Z" fill="#CBCBCB"/>
<path d="M120.347 280.976V456.72C117.263 456.644 114.185 456.391 111.127 455.963V281.701C114.185 281.283 117.263 281.041 120.347 280.976V280.976Z" fill="#CBCBCB"/>
<path d="M111.127 562.116C114.093 559.711 117.166 557.433 120.347 555.281V751.571H111.127V562.116Z" fill="#CBCBCB"/>
<path d="M60.2306 309.662V428.002C56.7924 424.064 53.7065 419.805 51.0115 415.278V322.385C53.7065 317.859 56.7924 313.6 60.2306 309.662V309.662Z" fill="#CBCBCB"/>
<path d="M60.2308 646.807V706.46C56.2987 686.788 56.2987 666.479 60.2308 646.807Z" fill="#CBCBCB"/>
<path d="M657.696 375.614H620.457C620.457 364.871 628.793 356.161 639.076 356.161C649.359 356.161 657.696 364.871 657.696 375.614Z" fill="#EBECFD"/>
<path d="M636.771 375.614H583.348C583.348 360.201 595.308 347.707 610.06 347.707C624.812 347.707 636.771 360.201 636.771 375.614Z" fill="#EBECFD"/>
<path d="M613.27 375.614H548.052C548.052 356.798 562.651 341.544 580.661 341.544C598.671 341.544 613.27 356.798 613.27 375.614Z" fill="#EBECFD"/>
<path d="M376.249 317.18H679.817V324.489H376.249V317.18Z" fill="#CBCBCB"/>
<path d="M376.249 317.18H679.817V324.489H376.249V317.18Z" fill="#CBCBCB"/>
<path d="M645.86 105.085V322.922H638.865V105.085H645.86Z" fill="#CBCBCB"/>
<path d="M531.526 105.074V322.911H524.531V105.074H531.526Z" fill="#CBCBCB"/>
<path d="M417.182 105.085V322.922H410.187V105.085H417.182Z" fill="#CBCBCB"/>
<path d="M376.249 285.886H679.817V293.195H376.249V285.886Z" fill="#CBCBCB"/>
<path d="M376.249 301.786H679.817V309.094H376.249V301.786Z" fill="#CBCBCB"/>
<path d="M376.249 254.582H679.817V261.89H376.249V254.582Z" fill="#CBCBCB"/>
<path d="M376.249 223.288H679.817V230.596H376.249V223.288Z" fill="#CBCBCB"/>
<path d="M376.249 191.984H679.817V199.292H376.249V191.984Z" fill="#CBCBCB"/>
<path d="M376.249 160.69H679.817V167.998H376.249V160.69Z" fill="#CBCBCB"/>
<path d="M376.249 129.386H679.817V136.694H376.249V129.386Z" fill="#CBCBCB"/>
<path d="M376.249 270.24H679.817V277.548H376.249V270.24Z" fill="#CBCBCB"/>
<path d="M376.249 238.935H679.817V246.243H376.249V238.935Z" fill="#CBCBCB"/>
<path d="M376.249 207.641H679.817V214.95H376.249V207.641Z" fill="#CBCBCB"/>
<path d="M376.249 176.337H679.817V183.645H376.249V176.337Z" fill="#CBCBCB"/>
<path d="M376.249 145.043H679.817V152.351H376.249V145.043Z" fill="#CBCBCB"/>
<path d="M376.249 113.739H679.817V121.047H376.249V113.739Z" fill="#CBCBCB"/>
<path d="M402.789 915.475C402.765 929.475 403.774 943.457 405.809 957.295H862.037C864.071 943.457 865.081 929.475 865.056 915.475C865.056 818.092 816.615 733.327 745.137 689.499C711.437 668.71 673.018 657.743 633.883 657.743C559.586 657.743 493.371 696.891 451.099 757.702C420.815 801.288 402.789 856.042 402.789 915.475Z" fill="#656565"/>
<path d="M297.886 957.305H593.232C593.232 867.283 534.535 790.11 451.13 757.712C443.288 754.651 435.3 752.018 427.196 749.826C357.499 800.226 309.501 873.718 297.886 957.305Z" fill="#656565"/>
<path d="M482.139 957.305H862.057C863.924 944.644 864.933 931.86 865.077 919.05C865.077 917.862 865.077 916.674 865.077 915.475C865.077 851.331 844.052 792.645 809.278 747.544C795.113 729.133 778.507 712.927 759.962 699.415C755.138 695.91 750.193 692.605 745.127 689.499C606.145 721.729 500.215 827.324 482.139 957.305H482.139Z" fill="#CBCBCB"/>
<path d="M605.561 957.305H863.033C864.291 944.845 864.986 932.068 865.097 919.05C865.097 917.862 865.097 916.674 865.097 915.475C865.097 851.331 844.072 792.645 809.298 747.544C675.278 792.55 613.864 869.207 605.561 957.305H605.561Z" fill="#656565"/>
<path d="M789.081 587.362L805.814 590.046C809.137 590.579 812.121 592.473 814.106 595.308C816.09 598.144 816.913 601.688 816.392 605.159L799.66 602.474C796.336 601.941 793.353 600.048 791.368 597.212C789.383 594.377 788.56 590.832 789.081 587.362Z" fill="#144013"/>
<path d="M816.344 604.997C815.519 599.28 811.227 594.791 805.756 593.925L789.018 591.243C788.827 589.94 788.827 588.614 789.018 587.31L805.756 589.992C812.635 591.099 817.366 597.804 816.344 604.997Z" fill="#0E2117"/>
<ellipse cx="609.234" cy="435.079" rx="50.8766" ry="53.1553" fill="#144013"/>
<path d="M564.99 437.371C564.527 456.212 573.659 473.897 588.984 483.839C571.484 475.912 559.696 458.426 558.447 438.541C557.198 418.655 566.698 399.71 583.057 389.462C599.416 379.214 619.887 379.385 636.087 389.905C620.566 382.9 602.729 384.404 588.484 393.917C574.238 403.431 565.443 419.713 565.01 437.371H564.99Z" fill="#506E32"/>
<path d="M636.696 467.159C637.274 443.103 657.244 424.113 681.299 424.745L691.432 425.011C715.487 425.643 734.518 445.657 733.939 469.713L733.831 474.211C733.252 498.267 713.283 517.256 689.228 516.624L679.094 516.358C655.04 515.726 636.009 495.713 636.587 471.657L636.696 467.159Z" fill="#144013"/>
<path d="M671.563 457.32C672.142 433.264 692.112 414.275 716.166 414.906L726.3 415.173C750.355 415.804 769.386 435.818 768.807 459.874L768.699 464.372C768.12 488.428 748.151 507.417 724.096 506.785L713.962 506.519C689.907 505.887 670.876 485.874 671.455 461.818L671.563 457.32Z" fill="#144013"/>
<path d="M604.695 452.829L603.82 489.054C603.556 500.034 611.86 509.157 622.369 509.433C632.877 509.709 641.61 501.032 641.874 490.053L642.749 453.828C642.92 446.726 639.452 440.068 633.65 436.362C627.848 432.656 620.595 432.466 614.623 435.863C608.65 439.259 604.866 445.727 604.695 452.829Z" fill="#F5A491"/>
<path d="M604.695 452.829L604.021 480.695C616.514 483.77 629.491 484.024 642.085 481.441L642.75 453.828C642.92 446.726 639.452 440.068 633.65 436.362C627.848 432.656 620.595 432.466 614.623 435.863C608.65 439.259 604.866 445.727 604.695 452.829Z" fill="#EF927F"/>
<path d="M579.262 371.314L579.172 381.829L579.111 389.053L578.729 431.851C578.533 454.714 596.098 473.423 617.981 473.66C635.474 473.848 652.321 466.766 664.815 453.972C677.309 441.179 684.426 423.723 684.598 405.447L684.86 375.32C685.044 354.608 669.125 337.661 649.302 337.464L619.792 337.191L612.636 337.117C603.868 337.019 595.422 340.569 589.161 346.984C582.901 353.399 579.339 362.152 579.262 371.314Z" fill="#F5A491"/>
<path d="M621.634 473.607C620.436 473.681 619.228 473.702 618.021 473.691C596.134 473.455 578.568 454.739 578.769 431.872L579.141 389.095L579.202 381.86L579.282 371.345C579.364 362.192 582.924 353.448 589.177 347.037C595.43 340.626 603.865 337.073 612.626 337.16H616.39C598.944 338.088 585.208 353.052 585.049 371.303L584.959 381.818L584.888 389.053L584.516 431.83C584.301 453.847 600.603 472.195 621.634 473.607Z" fill="#FFC4AF"/>
<path d="M579.262 371.314L579.171 381.829L579.111 389.053C592.896 397.091 610.212 393.652 620.212 380.889C630.211 368.126 630.017 349.711 619.752 337.181L612.596 337.107C603.833 337.02 595.396 340.576 589.144 346.992C582.891 353.408 579.336 362.158 579.262 371.314Z" fill="#EF927F"/>
<ellipse cx="4.59511" cy="3.76427" rx="4.59511" ry="3.76427" transform="matrix(0.0240534 -0.999711 0.999655 0.0262549 591.345 419.56)" fill="#230D30"/>
<ellipse cx="4.59511" cy="3.76427" rx="4.59511" ry="3.76427" transform="matrix(0.0240534 -0.999711 0.999655 0.0262549 621.357 420.346)" fill="#230D30"/>
<ellipse cx="696.333" cy="405.457" rx="34.5719" ry="36.1204" fill="#144013"/>
<path d="M768.748 460.957V462.135C768.381 477.897 760.273 492.352 747.29 500.39C757.478 491.949 763.551 479.217 763.867 465.637C763.867 465.237 763.867 464.848 763.867 464.459C763.86 442.464 748.89 423.579 728.208 419.474C727.051 419.243 725.873 419.064 724.685 418.938C725.028 417.697 725.303 416.436 725.511 415.163C725.805 413.426 725.973 411.668 726.014 409.905C726.338 396.889 719.928 384.699 709.239 378.004C698.549 371.309 685.238 371.147 674.403 377.581C686.093 367.545 702.672 366.62 715.318 375.299C727.965 383.977 733.738 400.241 729.567 415.436C751.835 417.933 768.727 437.558 768.748 460.957Z" fill="#0E2117"/>
<ellipse cx="733.25" cy="498.14" rx="31.2305" ry="32.6293" fill="#144013"/>
<ellipse cx="749.666" cy="531.211" rx="25.1313" ry="26.257" fill="#144013"/>
<ellipse cx="759.65" cy="553.998" rx="20.3909" ry="21.3042" fill="#144013"/>
<ellipse cx="779.558" cy="574.471" rx="17.7338" ry="18.5281" fill="#144013"/>
<path d="M791.484 588.162C792.74 585.675 793.429 582.918 793.497 580.107C793.709 570.924 787.463 562.958 778.803 561.369C777.944 561.221 777.076 561.137 776.206 561.117H776.186C776.242 560.649 776.272 560.179 776.277 559.707C776.442 554.286 774.587 549.008 771.103 544.986C770.758 544.569 770.392 544.173 770.006 543.798C770.63 541.601 770.968 539.327 771.013 537.036C771.013 536.794 771.013 536.532 771.013 536.29C770.975 527.674 766.889 519.628 760.083 514.765C759.7 514.491 759.318 514.228 758.915 513.976C759.621 511.867 760.107 509.685 760.364 507.467C760.504 506.361 760.588 505.249 760.616 504.134C760.94 490.634 753.264 478.323 741.313 473.178C729.363 468.032 715.614 471.118 706.74 480.937C715.041 466.623 732.369 461.203 746.833 468.395C761.297 475.588 768.197 493.055 762.8 508.813C772.472 515.019 776.971 527.222 773.781 538.603C777.919 542.749 780.195 548.524 780.051 554.513C780.051 554.986 780.051 555.47 779.97 555.922C787.211 556.111 793.613 560.884 796.139 567.977C798.664 575.069 796.805 583.053 791.444 588.141L791.484 588.162Z" fill="#0E2117"/>
<ellipse cx="681.548" cy="417.434" rx="16.7676" ry="17.5187" fill="#F5A491"/>
<path d="M686.611 417.75C686.534 420.792 684.723 423.492 682.011 424.606C681.368 424.846 680.652 424.739 680.099 424.317C679.547 423.896 679.23 423.216 679.254 422.503L679.485 412.66C679.513 411.919 679.896 411.242 680.505 410.86C681.114 410.479 681.866 410.444 682.505 410.767C685.063 412.055 686.668 414.783 686.611 417.75Z" fill="#EF927F"/>
<path d="M795.273 582.038C796.883 580.797 799.138 581.137 800.31 582.798L800.469 583.022C801.641 584.682 801.286 587.034 799.676 588.275L789.241 596.315C787.632 597.556 785.376 597.215 784.204 595.555L784.046 595.331C782.874 593.67 783.229 591.319 784.839 590.078L795.273 582.038Z" fill="#E1160C"/>
<ellipse cx="673.96" cy="357.433" rx="36.4238" ry="38.0552" fill="#144013"/>
<path d="M706.74 374.132C707.343 371.544 707.68 368.897 707.747 366.235C708.174 348.346 696.615 332.563 679.977 328.317C663.339 324.071 646.117 332.509 638.603 348.59C641.825 334.365 652.56 323.326 666.224 320.186C679.888 317.047 694.066 322.361 702.703 333.861C711.339 345.36 712.909 361.012 706.74 374.132Z" fill="#0E2117"/>
<ellipse cx="618.715" cy="336.676" rx="36.4238" ry="38.0552" fill="#144013"/>
<ellipse cx="579.413" cy="364.584" rx="36.4238" ry="38.0552" fill="#144013"/>
<path d="M650.67 318.421C642.201 310.902 630.911 307.832 620.008 310.085C609.105 312.338 599.783 319.667 594.691 329.988C593.51 332.374 592.582 334.889 591.923 337.486C590.917 337.359 589.8 337.275 588.703 337.244C586.568 337.189 584.433 337.326 582.322 337.654C570.572 339.528 560.435 347.27 555.158 358.397C549.882 369.525 550.13 382.641 555.822 393.543C544.061 383.096 539.881 366.038 545.389 350.972C550.897 335.905 564.897 326.103 580.329 326.507C581.406 326.529 582.481 326.609 583.549 326.749C587.4 311.731 599.61 300.671 614.386 298.82C629.162 296.968 643.529 304.696 650.67 318.337V318.421Z" fill="#506E32"/>
<ellipse cx="624.2" cy="341.86" rx="19.4649" ry="20.3368" fill="#506E32"/>
<path d="M572.511 502.064C586.349 491.53 605.632 494.553 615.581 508.818L616.888 510.693C626.837 524.958 623.684 545.062 609.847 555.596L526.695 618.901C512.858 629.436 493.575 626.412 483.626 612.147L482.319 610.273C472.37 596.008 475.522 575.904 489.36 565.369L572.511 502.064Z" fill="#F5A491"/>
<path d="M465.301 464.501C478.102 470.709 483.797 486.282 478.021 499.283L477.107 501.34C471.33 514.342 456.27 519.849 443.47 513.641L422.216 503.333C409.415 497.125 403.721 481.553 409.497 468.551L410.411 466.494C416.187 453.493 431.247 447.986 444.048 454.194L465.301 464.501Z" fill="#EF948C"/>
<path d="M431.967 503.34C425.815 490.362 431.167 474.491 443.923 467.89L444.639 467.519C457.394 460.919 472.722 466.088 478.874 479.066L529.781 586.444C535.933 599.421 530.58 615.293 517.825 621.894L517.109 622.264C504.354 628.865 489.026 623.696 482.873 610.718L431.967 503.34Z" fill="#F5A491"/>
<path d="M465.301 464.501C478.102 470.709 483.797 486.282 478.021 499.283L477.107 501.34C471.33 514.342 456.27 519.849 443.47 513.641L422.216 503.333C409.415 497.125 403.721 481.553 409.497 468.551L410.411 466.494C416.187 453.493 431.247 447.986 444.048 454.194L465.301 464.501Z" fill="#F5A491"/>
<path d="M618.977 544.05C616.728 548.804 613.405 552.915 609.295 556.027L527.278 618.52C521.868 622.638 515.342 624.848 508.649 624.829C498.669 625.948 488.957 621.005 483.648 612.106V612.043C473.704 596.985 434.875 509.423 434.875 509.423L422.617 503.461C415.258 499.894 409.922 492.932 408.198 484.65C406.475 476.368 408.563 467.72 413.84 461.283C413.821 461.317 413.805 461.352 413.79 461.388C410.892 467.901 410.591 475.351 412.952 482.096C415.314 488.841 420.145 494.329 426.381 497.351L430.708 499.454L438.649 503.303L443.531 513.608C443.531 513.608 486.909 605.166 487.332 605.902C493.335 613.983 502.581 618.705 512.373 618.688C516.853 618.688 521.282 617.691 525.366 615.765C527.35 614.823 529.238 613.674 531.002 612.337L613.039 549.886C615.253 548.219 617.249 546.257 618.977 544.05Z" fill="#EF927F"/>
<path d="M460.544 462.185C465.175 464.431 467.235 470.065 465.146 474.769L464.815 475.513C462.725 480.217 457.276 482.21 452.645 479.964L404.774 456.748C400.143 454.501 398.082 448.867 400.172 444.163L400.503 443.419C402.593 438.715 408.041 436.723 412.673 438.969L460.544 462.185Z" fill="#F5A491"/>
<path d="M472.018 468.001C474.67 472.412 473.332 478.278 469.029 481.103L468.727 481.301C464.423 484.126 458.785 482.84 456.132 478.429L440.225 451.976C437.572 447.564 438.91 441.699 443.213 438.874L443.516 438.675C447.819 435.851 453.458 437.137 456.11 441.548L472.018 468.001Z" fill="#F5A491"/>
<ellipse cx="458.104" cy="479.286" rx="18.4786" ry="19.3063" fill="#F5A491"/>
<path d="M362.044 709.724C363.582 686.981 383.257 669.903 405.991 671.581L531.223 680.822C553.957 682.499 571.14 702.297 569.603 725.04L569.317 729.267C567.779 752.011 548.104 769.088 525.37 767.411L400.137 758.17C377.404 756.492 360.221 736.695 361.758 713.951L362.044 709.724Z" fill="#EF927F"/>
<path d="M213.001 923.772C206.55 913.952 207.492 900.768 215.266 892.057L279.256 820.416C283.374 815.8 289.274 813.387 295.297 813.857C301.319 814.328 306.811 817.63 310.225 822.834L325.423 845.968C331.893 855.817 333.666 868.228 330.231 879.621C326.796 891.014 318.534 900.122 307.83 904.318L242.41 932.867C231.782 937.487 219.51 933.691 213.001 923.772Z" fill="#EF927F"/>
<path d="M312.339 872.457L425.777 746.272C441.196 729.121 441.88 700.624 426.129 683.453C410.217 666.06 385.156 668.552 371.217 688.016L269.182 830.384C261.623 840.9 265.156 858.187 276.7 869.291C288.133 880.29 303.895 881.847 312.339 872.457Z" fill="#EF927F"/>
<path d="M396.029 777.923C397.384 755.167 416.923 737.919 439.671 739.398L553.065 746.768C575.812 748.247 593.154 767.892 591.799 790.648L591.547 794.881C590.192 817.636 570.653 834.884 547.906 833.405L434.512 826.035C411.764 824.556 394.422 804.911 395.777 782.156L396.029 777.923Z" fill="#F5A491"/>
<path d="M322.746 904.308L456.967 815C475.083 803.097 479.874 777.092 466.7 757.534C453.535 737.965 428.454 733.874 411.646 747.67L285.839 849.459C275.2 858.166 274.848 876.799 284.651 891.321C294.434 905.885 311.302 911.826 322.746 904.308Z" fill="#F5A491"/>
<path d="M210.727 945.297C205.221 934.897 207.349 921.9 215.85 914.003L290.901 845.379C295.418 841.192 301.51 839.373 307.463 840.434C313.415 841.495 318.585 845.321 321.518 850.837L334.551 875.306C340.106 885.746 340.753 898.277 336.305 909.28C331.858 920.284 322.811 928.538 311.775 931.658L239.209 957.221C228.21 960.793 216.322 955.815 210.727 945.297Z" fill="#F5A491"/>
<path d="M591.772 790.058C591.772 790.941 591.772 791.866 591.692 792.771C590.252 816.692 570.536 834.872 547.639 833.392L439.867 826.378L339.221 893.319C339.592 911.177 328.258 926.996 311.755 931.658L239.219 957.221C230.799 959.947 221.626 957.703 215.24 951.354C208.854 945.004 206.253 935.543 208.442 926.621C210.112 933.351 214.349 939.071 220.165 942.449C225.98 945.827 232.867 946.567 239.219 944.497L311.775 918.935C324.054 915.454 330.727 906.032 334.249 894.591C335.256 891.279 332.77 883.95 332.77 883.95L424.408 823.949L439.867 813.665L457.259 814.79L547.639 820.679C569.196 822.067 588.181 805.978 591.329 783.654C591.626 785.775 591.774 787.915 591.772 790.058Z" fill="#EF927F"/>
<path d="M647.013 562.575C631.414 554.699 624.715 535.458 632.05 519.598L633.196 517.119C640.531 501.259 659.123 494.786 674.722 502.661L767.377 549.437C782.976 557.313 789.676 576.554 782.34 592.414L781.194 594.893C773.859 610.753 755.267 617.226 739.668 609.351L647.013 562.575Z" fill="#F5A491"/>
<path d="M781.218 563.577C785.162 571.36 785.983 580.461 783.503 588.877C785.043 582.281 784.331 575.33 781.49 569.224C781.198 568.583 780.886 567.962 780.564 567.363C777.561 561.888 772.933 557.584 767.38 555.102C764.771 552.275 761.705 549.954 758.321 548.246L666.482 501.883C664.491 500.87 662.403 500.081 660.252 499.528C665.392 499.353 670.496 500.493 675.117 502.851L766.917 549.119C773.044 552.212 778.057 557.281 781.218 563.577Z" fill="#FFC4AF"/>
<path d="M381.044 790.229C385.836 786.688 392.429 787.817 395.77 792.752L396.27 793.489C399.61 798.424 398.433 805.295 393.641 808.837L359.894 833.776C355.101 837.318 348.508 836.188 345.167 831.254L344.668 830.516C341.327 825.581 342.504 818.71 347.296 815.168L381.044 790.229Z" fill="#FFC4AF"/>
<path d="M667.729 726.108L569.187 719.847L578.354 562.354L676.896 568.615L667.729 726.108Z" fill="white"/>
<path d="M676.859 568.646L578.326 562.389L576.011 602.242L675.148 598.11L676.859 568.646Z" fill="#EFD6D8"/>
<path d="M685.479 555.848L554.77 547.543L554.849 546.178C556.9 510.951 585.895 484.131 619.612 486.273L628.211 486.819C661.928 488.962 687.599 519.255 685.548 554.483L685.469 555.847L685.479 555.848Z" fill="#F5A491"/>
<path d="M693.448 557.829C692.391 575.996 676.811 589.788 658.65 588.634L575.565 583.355C557.404 582.202 543.538 566.539 544.596 548.372L544.793 544.981C545.851 526.814 561.43 513.022 579.592 514.176L662.676 519.455C680.838 520.609 694.703 536.272 693.645 554.439L693.448 557.829Z" fill="white"/>
<path d="M693.515 556.164C692.451 574.435 677.964 588.688 660.443 588.698C659.759 588.698 659.074 588.698 658.43 588.698L649.996 588.152C662.815 581.329 670.619 567.292 669.94 552.278C669.26 537.263 660.224 524.058 646.846 518.529L662.456 519.518C680.696 520.724 694.576 537.101 693.515 556.164Z" fill="#EFD6D8"/>
<path d="M492.203 666.345L613.117 674.204C644.384 676.237 668.154 704.367 666.209 737.035L664.859 759.704C662.167 804.915 624.905 839.286 581.632 836.473L467.911 829.081C467.484 829.053 467.159 828.669 467.185 828.223L475.93 681.365C476.457 672.519 483.747 665.795 492.213 666.345L492.203 666.345Z" fill="#64A367"/>
<path d="M573.713 641.492L671.523 647.849L665.762 744.604L567.952 738.246L573.713 641.492Z" fill="#64A366"/>
<path d="M672.661 647.837L667.327 737.039L666.874 744.579L665.958 759.7C663.261 804.916 625.821 839.238 582.322 836.462L467.917 829.102C467.487 829.073 467.16 828.689 467.183 828.239L467.847 817.072L562.454 823.171C605.943 825.989 643.394 791.625 646.101 746.408L646.292 743.254L647.007 731.266L647.45 723.716L649.462 690.204L652.089 646.512L672.661 647.837Z" fill="#426149"/>
<path d="M633.553 617.163C637.902 614.368 643.553 615.713 646.176 620.168L646.55 620.803C649.173 625.257 647.774 631.134 643.426 633.929L618.138 650.183C613.789 652.978 608.138 651.633 605.515 647.179L605.141 646.544C602.518 642.089 603.917 636.212 608.265 633.417L633.553 617.163Z" fill="#E1617F"/>
<ellipse cx="644.36" cy="631.78" rx="18.5591" ry="19.3904" fill="#E1617F"/>
<path d="M630.459 623.426C636.384 610.418 651.562 605.033 664.36 611.396L665.052 611.74C677.851 618.104 683.423 633.807 677.498 646.814L666.776 670.354C660.851 683.361 645.673 688.747 632.874 682.383L632.182 682.039C619.384 675.675 613.812 659.972 619.737 646.965L630.459 623.426Z" fill="#EF948C"/>
<path d="M627.994 628.825C630.137 624.12 635.626 622.172 640.255 624.474L640.506 624.598C645.134 626.9 647.15 632.579 645.007 637.284L622.003 687.786C619.86 692.49 614.371 694.438 609.742 692.136L609.491 692.012C604.863 689.71 602.847 684.031 604.99 679.327L627.994 628.825Z" fill="#EF948C"/>
<path d="M633.553 617.163C637.902 614.368 643.554 615.713 646.177 620.168L646.55 620.803C649.173 625.257 647.774 631.134 643.426 633.929L618.138 650.183C613.789 652.978 608.138 651.633 605.515 647.179L605.141 646.544C602.518 642.089 603.917 636.212 608.265 633.417L633.553 617.163Z" fill="#F5A491"/>
<ellipse cx="644.36" cy="631.78" rx="18.5591" ry="19.3904" fill="#F5A491"/>
<path d="M780.584 567.363C780.906 567.962 781.218 568.583 781.51 569.224C784.352 575.33 785.064 582.281 783.523 588.877C783.423 589.361 783.302 589.824 783.161 590.286C783.02 590.749 782.929 591.054 782.809 591.432C782.194 593.28 781.412 595.061 780.474 596.753C780.282 597.079 780.101 597.405 779.91 597.721C779.866 597.802 779.815 597.879 779.759 597.952C779.538 598.32 779.306 598.667 779.055 599.004C778.803 599.34 778.612 599.656 778.37 599.971C778.37 600.045 778.27 600.108 778.219 600.181C777.978 600.497 777.736 600.791 777.484 601.096L777.424 601.18C777.142 601.496 776.86 601.832 776.569 602.148C776.277 602.463 775.965 602.789 775.653 603.094C775.653 603.094 775.653 603.147 775.602 603.157C775.29 603.462 774.978 603.757 774.656 604.04C774.334 604.324 773.982 604.65 773.65 604.934C773.318 605.218 772.945 605.492 772.583 605.765C771.309 606.713 769.963 607.55 768.557 608.268L669.924 658.09C663.229 661.494 655.509 661.966 648.48 659.399C641.45 656.833 635.692 651.44 632.484 644.42C629.25 637.42 628.812 629.365 631.266 622.028C633.72 614.691 638.865 608.674 645.568 605.302L744.201 555.47C751.53 551.754 760.045 551.562 767.521 554.944C773.052 557.49 777.638 561.849 780.584 567.363Z" fill="#F5A491"/>
<path d="M630.459 623.426C636.384 610.418 651.562 605.033 664.36 611.396L665.052 611.74C677.851 618.104 683.423 633.807 677.498 646.814L666.776 670.354C660.851 683.361 645.673 688.747 632.874 682.383L632.182 682.039C619.384 675.675 613.812 659.972 619.737 646.965L630.459 623.426Z" fill="#F5A491"/>
<path d="M780.584 567.363C780.906 567.962 781.218 568.582 781.51 569.224C784.351 575.33 785.063 582.281 783.523 588.877C783.422 589.361 783.302 589.824 783.161 590.286C783.02 590.749 782.929 591.054 782.808 591.432C782.194 593.28 781.412 595.061 780.473 596.753C780.282 597.079 780.101 597.405 779.91 597.721C779.865 597.802 779.815 597.879 779.759 597.952C779.537 598.32 779.306 598.667 779.054 599.004C778.803 599.34 778.611 599.656 778.37 599.971C778.37 600.045 778.269 600.108 778.219 600.181C777.977 600.497 777.736 600.791 777.484 601.096L777.424 601.18C777.142 601.496 776.86 601.832 776.568 602.148C776.277 602.463 775.965 602.789 775.653 603.094C775.653 603.094 775.652 603.147 775.602 603.157C775.29 603.462 774.978 603.757 774.656 604.04C774.334 604.324 773.982 604.65 773.65 604.934C773.318 605.218 772.945 605.492 772.583 605.765C771.313 606.723 769.966 607.564 768.557 608.278L673.185 656.449L667.347 669.246C661.904 681.185 649.034 687.307 636.842 683.758C646.282 683.128 654.658 677.21 658.732 668.29L662.204 660.655L664.559 655.503L676.325 649.562L750.26 612.221L759.942 607.332C767.49 603.525 773.005 596.381 774.968 587.868C778.378 576.321 775.505 563.751 767.47 555.06C773.003 557.566 777.606 561.884 780.584 567.363Z" fill="#FFC4AF"/>
<path d="M627.994 628.825C630.137 624.12 635.626 622.172 640.255 624.474L640.506 624.598C645.134 626.9 647.15 632.579 645.007 637.284L622.003 687.786C619.86 692.49 614.371 694.438 609.742 692.136L609.491 692.012C604.863 689.71 602.847 684.031 604.99 679.327L627.994 628.825Z" fill="#F5A491"/>
<path d="M646.955 638.777C648.826 634.671 653.617 632.971 657.657 634.98L657.885 635.093C661.925 637.102 663.684 642.059 661.814 646.166L654.938 661.262C653.067 665.368 648.276 667.068 644.235 665.059L644.008 664.946C639.967 662.937 638.208 657.98 640.079 653.874L646.955 638.777Z" fill="#FFC4AF"/>
<path d="M698.505 656.202C699.375 658.036 698.619 660.279 696.817 661.213L696.716 661.265C694.914 662.199 692.747 661.469 691.877 659.635L662.023 596.719C661.153 594.885 661.909 592.642 663.711 591.708L663.812 591.656C665.615 590.722 667.781 591.452 668.651 593.286L698.505 656.202Z" fill="#6F7D96"/>
<path d="M710.027 647.178C710.897 649.011 710.141 651.255 708.339 652.188L708.238 652.241C706.435 653.174 704.269 652.444 703.399 650.611L675.874 592.603C675.004 590.769 675.76 588.526 677.562 587.592L677.663 587.54C679.465 586.606 681.632 587.336 682.502 589.17L710.027 647.178Z" fill="#4E4A65"/>
<path d="M544.127 671.497H530.036V668.689C530.036 666.023 532.105 663.863 534.656 663.863H539.557C542.109 663.863 544.177 666.023 544.177 668.689V671.497H544.127Z" fill="#A7BBD8"/>
<path d="M558.187 671.497H544.096V668.689C544.096 667.409 544.583 666.181 545.45 665.276C546.316 664.371 547.491 663.863 548.716 663.863H553.587C556.139 663.863 558.207 666.023 558.207 668.689V671.497H558.187Z" fill="#A7BBD8"/>
<path d="M572.237 671.497H558.147V668.689C558.147 667.409 558.633 666.181 559.5 665.276C560.366 664.371 561.541 663.863 562.766 663.863H567.607C570.159 663.863 572.227 666.023 572.227 668.689V671.497H572.237Z" fill="#A7BBD8"/>
<rect x="587.082" y="679.331" width="160.45" height="11.9665" rx="5.69" transform="rotate(-180 587.082 679.331)" fill="#5C729A"/>
<path d="M530.912 679.331H397.052C391.441 679.326 386.549 675.341 385.176 669.656L359.089 561.348C358.172 557.524 358.992 553.471 361.311 550.362C363.631 547.252 367.192 545.432 370.965 545.428H489.123C494.737 545.425 499.633 549.413 501 555.102L530.912 679.331Z" fill="#C3D4EF"/>
<path d="M359.069 561.348L385.156 669.656C386.529 675.341 391.421 679.326 397.032 679.331H532.985L530.097 667.364H422.254C416.639 667.364 411.742 663.378 410.368 657.69L384.291 549.381C383.976 548.091 383.857 546.757 383.938 545.428H370.955C367.18 545.429 363.616 547.248 361.294 550.358C358.972 553.468 358.151 557.522 359.069 561.348Z" fill="#5C739A"/>
<path d="M450.485 610.634C450.486 616.326 446.788 621.293 441.507 622.693C436.226 624.093 430.709 621.569 428.112 616.564C432.769 618.692 438.205 617.5 441.65 613.595C445.094 609.69 445.789 603.932 443.38 599.256C447.7 601.239 450.488 605.704 450.485 610.634Z" fill="#8CA2C3"/>
<path d="M564.034 794.716C562.273 794.8 560.502 794.8 558.71 794.716L505.086 792.613C503.026 792.53 501.164 791.306 500.202 789.4C499.241 787.495 499.325 785.198 500.424 783.375C501.522 781.552 503.468 780.48 505.529 780.562L559.143 782.666C584.102 783.582 606.24 766.044 612.133 740.688L619.47 708.7C620.27 705.526 623.351 703.602 626.406 704.368C629.461 705.134 631.369 708.311 630.702 711.518L623.355 743.506C616.642 772.434 592.491 793.283 564.034 794.716Z" fill="#94D07F"/>
<path d="M601.978 430.2C601.893 432.678 602.759 435.089 604.383 436.898C604.585 437.119 604.786 437.329 604.997 437.529C606.554 438.97 608.544 439.796 610.623 439.863H610.986C612.88 439.94 614.747 439.376 616.31 438.255C618.46 436.73 619.87 434.305 620.175 431.609C620.175 431.346 620.175 431.094 620.175 430.831C620.194 430.35 620.028 429.882 619.714 429.53C619.4 429.178 618.964 428.973 618.504 428.959L603.719 428.444C602.776 428.432 602 429.215 601.978 430.2Z" fill="#962F4A"/>
<path d="M610.845 438.433C610.834 438.915 610.864 439.398 610.935 439.874H610.986C615.641 440.038 619.638 436.443 620.175 431.609C618.046 430.888 615.717 431.253 613.883 432.594C612.05 433.935 610.925 436.097 610.845 438.433Z" fill="#E1617F"/>
<path d="M604.081 428.465C604.081 430.294 606.748 431.861 610.12 431.977C613.492 432.093 616.159 430.726 616.33 428.885L604.081 428.465Z" fill="white"/>
</svg>
